<svg width="128" height="128" xmlns:xlink="http://www.w3.org/1999/xlink" xmlns="http://www.w3.org/2000/svg"><defs><linearGradient id="c"><stop style="stop-color:#26124c;stop-opacity:1" offset="0"/><stop style="stop-color:#93718d;stop-opacity:1" offset="1"/></linearGradient><linearGradient id="b"><stop style="stop-color:#c5c5c5;stop-opacity:1" offset="0"/><stop style="stop-color:#c5c5c5;stop-opacity:0" offset="1"/></linearGradient><linearGradient id="a"><stop style="stop-color:#ff2b2b;stop-opacity:1" offset=".05"/><stop style="stop-color:#921775;stop-opacity:1" offset=".379"/><stop style="stop-color:#7b0f2f;stop-opacity:1" offset=".942"/></linearGradient><linearGradient xlink:href="#a" id="d" x1="0" y1="0" x2="32" y2="32" gradientUnits="userSpaceOnUse"/><linearGradient xlink:href="#c" id="f" x1="0" y1="32" x2="32" y2="0" gradientUnits="userSpaceOnUse"/><filter style="color-interpolation-filters:sRGB" id="e" x="-.15" y="-.15" width="1.3" height="1.3"><feGaussianBlur stdDeviation="2 2" result="blur"/></filter></defs><path style="fill:url(#d);fill-opacity:1;stroke-width:5.496;stroke-linejoin:bevel;stroke-miterlimit:40.6" d="M4 0h24l4 4v24l-4 4H4l-4-4V4z" transform="scale(4)"/><path style="display:inline;fill:#000;fill-opacity:1;stroke-width:5.496;stroke-linejoin:bevel;stroke-miterlimit:40.6;filter:url(#e)" d="M11 0h10l11 11v10L21 32H11L0 21V11z" transform="scale(4)"/><path style="display:inline;fill:#000;fill-opacity:1;stroke-width:5.496;stroke-linejoin:bevel;stroke-miterlimit:40.6" d="M11 0h10l11 11v10L21 32H11L0 21V11z" transform="scale(4)"/><path style="display:inline;fill:url(#f);fill-opacity:1;stroke-width:5.496;stroke-linejoin:bevel;stroke-miterlimit:40.6" transform="translate(22 22) scale(2.625)" d="M12 0h8a2.414 2.414 22.5 0 1 1.707.707l9.586 9.586A2.414 2.414 67.5 0 1 32 12v8a2.414 2.414 112.5 0 1-.707 1.707l-9.586 9.586A2.414 2.414 157.5 0 1 20 32h-8a2.414 2.414 22.5 0 1-1.707-.707L.707 21.707A2.414 2.414 67.5 0 1 0 20v-8a2.414 2.414 112.5 0 1 .707-1.707L10.293.707A2.414 2.414 157.5 0 1 12 0z"/><path d="M-61.389-18.633v9.613h8.823V15.96c0 2.671-.575 4.361-1.428 5.385-.78.916-1.992 1.494-3.598 1.494-1.416 0-2.642-.527-3.513-1.426-.961-.99-1.688-2.488-2.026-4.662l-.351-2.264-10.618 1.76.41 2.266c1.644 9.075 7.126 13.906 16.067 13.906 4.704 0 8.624-1.44 11.547-4.522 2.914-3.097 4.228-7.159 4.228-12.068v-34.46z" style="font-size:66.6667px;font-family:'Liberation Sans';-inkscape-font-specification:'Liberation Sans';fill:#000;stroke-width:3.932;stroke-linecap:square;paint-order:fill markers stroke;fill-opacity:1" aria-label="J" transform="matrix(1.12466 0 0 1.12466 129.2 56.248)"/></svg>