<?xml version="1.0" encoding="UTF-8" standalone="no"?>
<svg
   width="128"
   height="128"
   version="1.1"
   id="svg11"
   sodipodi:docname="logo.svg"
   xml:space="preserve"
   inkscape:version="1.4 (e7c3feb100, 2024-10-09)"
   xmlns:inkscape="http://www.inkscape.org/namespaces/inkscape"
   xmlns:sodipodi="http://sodipodi.sourceforge.net/DTD/sodipodi-0.dtd"
   xmlns:xlink="http://www.w3.org/1999/xlink"
   xmlns="http://www.w3.org/2000/svg"
   xmlns:svg="http://www.w3.org/2000/svg"><sodipodi:namedview
     id="namedview11"
     pagecolor="#ffffff"
     bordercolor="#000000"
     borderopacity="0.25"
     inkscape:showpageshadow="2"
     inkscape:pageopacity="0.0"
     inkscape:pagecheckerboard="0"
     inkscape:deskcolor="#d1d1d1"
     inkscape:zoom="1.6855469"
     inkscape:cx="-178.8737"
     inkscape:cy="12.162225"
     inkscape:window-width="2048"
     inkscape:window-height="1076"
     inkscape:window-x="0"
     inkscape:window-y="0"
     inkscape:window-maximized="1"
     inkscape:current-layer="svg11" /><defs
     id="defs7"><linearGradient
       id="linearGradient19"
       inkscape:collect="always"><stop
         style="stop-color:#291f4c;stop-opacity:1;"
         offset="0"
         id="stop19" /><stop
         style="stop-color:#000000;stop-opacity:1;"
         offset="1"
         id="stop20" /></linearGradient><linearGradient
       id="c"><stop
         style="stop-color:#26124c;stop-opacity:1"
         offset="0"
         id="stop1" /><stop
         style="stop-color:#93718d;stop-opacity:1"
         offset="1"
         id="stop2" /></linearGradient><linearGradient
       id="b"><stop
         style="stop-color:#c5c5c5;stop-opacity:1"
         offset="0"
         id="stop3" /><stop
         style="stop-color:#c5c5c5;stop-opacity:0"
         offset="1"
         id="stop4" /></linearGradient><linearGradient
       id="a"><stop
         style="stop-color:#ff2b2b;stop-opacity:1"
         offset=".05"
         id="stop5" /><stop
         style="stop-color:#921775;stop-opacity:1"
         offset=".379"
         id="stop6" /><stop
         style="stop-color:#7b0f2f;stop-opacity:1"
         offset=".942"
         id="stop7" /></linearGradient><linearGradient
       xlink:href="#a"
       id="d"
       x1="0"
       y1="0"
       x2="32"
       y2="32"
       gradientUnits="userSpaceOnUse" /><linearGradient
       xlink:href="#c"
       id="f"
       x1="0"
       y1="32"
       x2="32"
       y2="0"
       gradientUnits="userSpaceOnUse" /><filter
       style="color-interpolation-filters:sRGB"
       id="e"
       x="-0.15"
       y="-0.15"
       width="1.3"
       height="1.3"><feGaussianBlur
         stdDeviation="2 2"
         result="blur"
         id="feGaussianBlur7" /></filter><linearGradient
       inkscape:collect="always"
       xlink:href="#linearGradient19"
       id="linearGradient20"
       x1="36.36488"
       y1="87.731171"
       x2="91.486801"
       y2="38.785633"
       gradientUnits="userSpaceOnUse" /><filter
       style="color-interpolation-filters:sRGB;"
       inkscape:label="Blur"
       id="filter20"
       x="-0.45677225"
       y="-0.48562942"
       width="1.9135445"
       height="1.9712588"><feGaussianBlur
         stdDeviation="10.6885 10.0414"
         result="blur"
         id="feGaussianBlur20" /></filter></defs><path
     style="fill:url(#d);fill-opacity:1;stroke-width:5.496;stroke-linejoin:bevel;stroke-miterlimit:40.6"
     d="M4 0h24l4 4v24l-4 4H4l-4-4V4z"
     transform="scale(4)"
     id="path7" /><path
     style="display:inline;fill:#000;fill-opacity:1;stroke-width:5.496;stroke-linejoin:bevel;stroke-miterlimit:40.6;filter:url(#e)"
     d="M11 0h10l11 11v10L21 32H11L0 21V11z"
     transform="scale(4)"
     id="path8" /><path
     style="display:inline;fill:#000;fill-opacity:1;stroke-width:5.496;stroke-linejoin:bevel;stroke-miterlimit:40.6"
     d="M11 0h10l11 11v10L21 32H11L0 21V11z"
     transform="scale(4)"
     id="path9" /><path
     style="display:inline;fill:url(#f);fill-opacity:1;stroke-width:5.496;stroke-linejoin:bevel;stroke-miterlimit:40.6"
     transform="translate(22 22) scale(2.625)"
     d="M12 0h8a2.414 2.414 22.5 0 1 1.707.707l9.586 9.586A2.414 2.414 67.5 0 1 32 12v8a2.414 2.414 112.5 0 1-.707 1.707l-9.586 9.586A2.414 2.414 157.5 0 1 20 32h-8a2.414 2.414 22.5 0 1-1.707-.707L.707 21.707A2.414 2.414 67.5 0 1 0 20v-8a2.414 2.414 112.5 0 1 .707-1.707L10.293.707A2.414 2.414 157.5 0 1 12 0z"
     id="path10" /><path
     id="rect11"
     style="fill:url(#linearGradient20);fill-opacity:1"
     d="M 35.919922,39.1875 V 54.921875 H 50.917969 V 39.1875 Z m 16.308594,0 V 54.921875 H 67.226562 V 39.1875 Z m 16.517578,0 V 54.921875 H 83.744141 V 39.1875 Z M 41.529297,56.087891 V 71.822266 H 56.527344 V 56.087891 Z m 16.308594,0 V 71.822266 H 72.835938 V 56.087891 Z m 16.517578,0 V 71.822266 H 89.353516 V 56.087891 Z M 44.255859,73.078125 V 88.8125 H 59.253906 V 73.078125 Z m 16.308594,0 V 88.8125 H 75.5625 V 73.078125 Z m 16.517578,0 V 88.8125 H 92.080078 V 73.078125 Z" /></svg>
